<?xml version="1.0" standalone="no"?>
<!DOCTYPE svg PUBLIC "-//W3C//DTD SVG 20010904//EN"
 "http://www.w3.org/TR/2001/REC-SVG-20010904/DTD/svg10.dtd">
<svg version="1.0" xmlns="http://www.w3.org/2000/svg"
 width="260.000000pt" height="260.000000pt" viewBox="0 0 260.000000 260.000000"
 preserveAspectRatio="xMidYMid meet">
<metadata>
Created by potrace 1.11, written by Peter Selinger 2001-2013
</metadata>
<g transform="translate(0.000000,260.000000) scale(0.100000,-0.100000)"
fill="#000000" stroke="none">
<path d="M0 1300 l0 -1300 258 0 257 0 12 25 c6 14 7 23 2 19 -5 -3 -9 -1 -9
5 0 7 -32 8 -92 5 -80 -5 -101 -3 -149 15 -77 29 -134 73 -170 129 -81 128
-67 287 36 401 42 46 143 100 204 108 26 4 41 11 41 20 0 7 6 16 14 19 13 5
27 33 30 59 3 24 24 9 139 -98 235 -221 360 -320 527 -421 96 -58 271 -146
291 -146 5 0 7 -5 3 -11 -4 -8 1 -9 17 -5 22 7 22 6 -3 -11 -16 -10 -28 -26
-28 -36 0 -12 -5 -17 -14 -14 -9 4 -16 -3 -20 -19 -4 -13 -13 -24 -21 -24 -7
0 -17 -5 -20 -10 -4 -7 132 -10 401 -10 l407 0 -8 53 c-4 28 -6 62 -6 74 0 12
-5 32 -12 46 -18 34 -10 107 12 107 12 0 13 2 3 9 -11 7 -11 11 1 22 7 8 19
26 26 39 11 21 9 21 -12 -5 -14 -16 -28 -28 -31 -24 -3 3 11 26 32 51 20 25
46 58 57 74 11 15 35 47 53 71 17 24 32 45 32 48 0 2 10 20 21 40 15 24 24 32
29 25 5 -8 15 -1 31 21 14 20 34 35 49 37 13 1 36 10 50 20 30 20 130 62 148
62 9 0 12 190 12 915 l0 915 -1300 0 -1300 0 0 -1300z m1240 1120 c-8 -5 -10
-10 -5 -10 6 0 4 -4 -4 -9 -10 -7 -5 -13 20 -25 39 -18 89 -59 89 -72 0 -5 40
-22 88 -36 117 -36 171 -81 179 -149 5 -43 2 -50 -32 -87 -60 -68 -157 -104
-312 -118 -40 -3 -73 -10 -73 -15 0 -5 -8 -9 -18 -9 -10 0 -23 -5 -30 -12 -12
-12 -142 -17 -182 -6 -35 10 -311 107 -335 119 l-20 9 20 -4 c11 -2 32 -7 48
-10 16 -4 27 -2 27 4 0 5 -7 10 -16 10 -8 0 -12 5 -9 10 3 6 -1 13 -9 16 -9 3
-13 10 -10 15 3 5 0 9 -6 9 -8 0 -8 6 0 20 8 14 21 20 46 20 27 0 36 5 44 24
5 13 18 27 29 31 12 3 21 12 21 20 0 21 101 102 161 129 30 13 80 29 112 36
54 13 57 14 36 26 l-22 12 22 12 c29 15 20 24 -17 15 -17 -3 -34 -16 -40 -29
-8 -18 -24 -25 -83 -36 -87 -15 -101 -19 -94 -30 6 -9 -24 -24 -44 -21 -8 1
-10 -2 -5 -10 4 -8 3 -10 -4 -5 -14 8 -52 -11 -69 -34 -7 -10 -29 -24 -50 -33
-50 -20 -67 -41 -92 -112 -14 -41 -20 -52 -21 -34 0 15 7 45 15 68 19 55 9 52
-16 -5 -29 -64 -24 -135 14 -199 16 -27 35 -57 43 -66 8 -8 14 -22 14 -31 0
-15 33 -49 60 -62 9 -5 9 -2 -2 7 -39 31 -2 23 65 -15 68 -39 123 -80 87 -66
-8 3 -24 9 -35 13 -18 6 -18 5 -2 -5 21 -13 125 -50 141 -50 6 1 0 7 -14 15
-23 13 -23 14 -4 15 21 0 126 -17 157 -26 9 -3 17 -10 17 -15 0 -6 -33 -8 -82
-5 -206 10 -440 140 -508 282 -31 66 -31 150 -1 221 64 146 318 289 513 287
42 0 75 2 73 5 -2 4 29 8 68 9 51 2 68 0 57 -8z m260 -10 c20 -6 21 -8 5 -8
-11 0 -31 4 -45 8 -20 6 -21 8 -5 8 11 0 31 -4 45 -8z m89 -50 c55 -16 115
-37 133 -46 90 -46 199 -137 183 -152 -3 -4 -21 10 -38 30 -31 36 -156 108
-187 108 -9 0 -20 4 -25 9 -6 5 -68 19 -140 31 -120 20 -165 33 -165 46 0 3 4
3 9 -1 5 -3 13 0 17 6 9 16 92 4 213 -31z m161 -26 l25 -15 -25 7 c-14 3 -32
10 -40 15 -13 7 -13 8 0 8 8 0 26 -6 40 -15z m179 -111 c100 -85 123 -125 124
-212 0 -42 -7 -71 -29 -116 -30 -62 -102 -143 -145 -164 -22 -11 -22 -10 4 13
26 24 27 31 3 27 -6 -1 11 21 38 49 61 66 86 120 86 193 0 77 -20 121 -88 190
-64 64 -60 76 7 20z m28 -107 c15 -30 20 -99 11 -162 -5 -33 -31 -78 -40 -69
-3 3 -13 -11 -23 -32 -31 -67 -109 -134 -137 -117 -7 4 8 23 38 50 27 23 47
44 44 47 -3 3 -41 -15 -85 -40 -78 -44 -234 -103 -272 -103 -16 0 -19 5 -15
32 4 26 -1 36 -24 56 -16 13 -23 21 -16 18 6 -4 12 -3 12 1 0 5 -6 15 -12 22
-11 10 -7 10 16 1 16 -6 38 -7 50 -3 11 3 35 6 51 4 24 -1 27 0 15 9 -12 9 -9
10 15 5 16 -4 27 -3 22 1 -4 4 5 21 20 37 16 17 22 27 16 23 -28 -16 -9 11 35
49 45 39 49 33 8 -14 l-21 -24 23 12 c12 6 22 8 22 4 1 -17 39 63 39 82 1 17
-1 18 -10 5 -9 -12 -9 -11 -3 5 4 11 10 38 14 60 4 22 8 32 9 21 1 -13 5 -16
19 -10 9 4 31 7 48 7 21 -1 41 7 60 26 38 35 52 34 71 -3z m-1354 -146 c3 -11
1 -18 -4 -14 -5 3 -9 12 -9 20 0 20 7 17 13 -6z m-74 -120 l23 -35 -26 30
c-14 17 -26 34 -26 39 0 11 0 11 29 -34z m132 23 c13 -16 12 -17 -3 -4 -10 7
-18 15 -18 17 0 8 8 3 21 -13z m220 -34 c32 -11 64 -17 71 -13 7 4 10 3 5 -1
-10 -11 70 -48 85 -39 7 5 9 2 5 -8 -4 -12 -1 -14 15 -10 14 3 19 1 15 -5 -5
-7 0 -9 13 -6 12 3 22 -1 26 -10 3 -9 12 -13 21 -10 10 4 14 2 10 -5 -4 -5 7
-22 25 -36 l33 -26 -46 0 c-55 0 -146 15 -214 37 -61 18 -187 74 -181 80 2 2
-7 16 -20 30 -40 43 -32 57 28 49 28 -4 77 -16 109 -27z m-256 -93 c30 -28 29
-28 -11 2 -22 17 -47 39 -55 49 -11 14 -9 14 11 -2 13 -11 38 -33 55 -49z
m1081 -45 c-10 -16 -97 -52 -141 -58 -76 -10 -52 17 41 47 73 24 110 28 100
11z m48 -60 c-9 -17 -32 -37 -58 -50 -40 -18 -49 -19 -88 -8 l-43 13 100 36
c55 19 101 36 102 37 1 0 -5 -12 -13 -28z m-1319 -27 c32 -42 28 -51 -14 -29
-22 11 -31 23 -31 40 0 34 13 31 45 -11z m995 17 c0 -18 -155 -30 -196 -14
-16 6 -16 7 2 14 27 11 194 11 194 0z m-353 -57 l56 -7 -39 -18 c-71 -33 -137
-18 -201 46 l-23 22 75 -18 c42 -10 101 -21 132 -25z m1081 -21 c0 -21 -3 -42
-8 -48 -4 -5 -11 -26 -15 -45 -10 -48 -48 -104 -114 -170 -50 -50 -167 -130
-191 -130 -10 0 -30 -88 -30 -134 0 -71 -46 -153 -102 -182 -37 -19 -76 -13
-141 22 l-49 25 -5 -21 c-4 -13 -11 -19 -20 -16 -8 3 -18 6 -23 6 -4 0 -57 43
-117 97 -59 53 -137 116 -173 139 -36 24 -123 86 -195 139 -183 135 -202 146
-367 216 -81 34 -148 65 -148 69 0 4 14 13 31 20 36 15 52 9 130 -57 30 -25
80 -58 113 -73 48 -24 62 -27 82 -18 30 14 126 -2 226 -37 38 -13 120 -31 183
-40 64 -9 143 -24 178 -35 87 -26 413 -34 472 -12 101 39 186 119 240 226 19
38 35 75 35 82 0 8 2 14 4 14 2 0 4 -17 4 -37z m-675 20 c-7 -2 -13 -10 -13
-17 0 -6 -19 -24 -42 -39 -63 -41 -129 -38 -194 8 l-49 35 65 1 c36 1 94 5
130 9 80 9 119 10 103 3z m-383 -494 c3 -3 44 -39 91 -81 47 -42 112 -104 145
-138 32 -35 69 -73 81 -86 13 -12 24 -29 25 -36 2 -7 8 -16 13 -20 6 -5 4 -8
-5 -8 -28 0 -173 102 -241 169 -61 62 -149 179 -149 199 0 5 -7 15 -15 22 -29
24 -15 30 18 8 17 -13 34 -26 37 -29z m-94 -21 c17 -18 45 -54 63 -79 18 -26
54 -61 79 -77 82 -54 212 -171 212 -191 0 -16 -8 -19 -47 -19 -101 0 -193 39
-193 81 0 8 -7 20 -15 27 -15 13 -21 9 -165 -93 -82 -58 -171 -32 -220 63 -41
80 -19 122 137 264 76 68 104 72 149 24z m-251 -441 c150 -153 256 -232 418
-310 132 -63 180 -96 120 -81 -68 17 -261 124 -373 207 -71 53 -252 220 -285
263 -23 30 -24 34 -8 34 9 0 67 -51 128 -113z m720 33 c33 -11 70 -30 83 -43
49 -45 48 -50 -28 -139 -144 -168 -122 -152 -189 -145 -81 7 -146 50 -157 103
-7 35 26 88 114 182 67 71 82 75 177 42z"/>
<path d="M1185 2410 c4 -6 11 -8 16 -5 14 9 11 15 -7 15 -8 0 -12 -5 -9 -10z"/>
<path d="M820 2350 c-8 -5 -10 -10 -5 -10 6 0 17 5 25 10 8 5 11 10 5 10 -5 0
-17 -5 -25 -10z"/>
<path d="M614 2218 l-19 -23 23 19 c12 11 22 21 22 23 0 8 -8 2 -26 -19z"/>
<path d="M988 1633 c7 -3 16 -2 19 1 4 3 -2 6 -13 5 -11 0 -14 -3 -6 -6z"/>
<path d="M1884 2095 c-36 -25 -41 -159 -6 -172 32 -13 68 81 57 148 -7 42 -19
47 -51 24z"/>
<path d="M950 1316 c0 -3 12 -12 28 -20 15 -8 59 -39 97 -70 46 -37 89 -61
124 -72 30 -9 82 -29 114 -46 63 -31 63 -31 99 21 16 24 40 42 77 57 l55 22
-45 7 c-24 4 -66 13 -94 21 -27 7 -81 18 -120 24 -38 6 -99 19 -135 30 -63 18
-200 36 -200 26z"/>
<path d="M293 670 c-77 -18 -152 -80 -196 -164 -31 -59 -31 -204 0 -260 61
-108 152 -166 265 -166 88 0 99 4 84 35 -15 33 -25 36 -143 42 l-103 6 0 33
c0 30 3 34 26 34 14 0 24 3 22 8 -42 81 -50 108 -46 157 3 32 13 64 26 82 28
39 28 43 -3 43 -22 0 -25 4 -25 34 l0 33 69 6 c83 7 112 20 108 48 -6 36 -27
43 -84 29z"/>
<path d="M312 453 c-15 -6 -42 -56 -42 -79 0 -30 49 -84 76 -84 28 0 32 25 9
56 -17 23 -19 56 -3 72 8 8 8 15 -2 27 -13 16 -17 17 -38 8z"/>
</g>
</svg>
